 <svg version="1.0" xmlns="http://www.w3.org/2000/svg" width="700.000000pt" height="138.000000pt" viewBox="0 0 700.000000 138.000000" preserveAspectRatio="xMidYMid meet">
<metadata>
Created by potrace 1.12, written by Peter Selinger 2001-2015
</metadata>
<g transform="translate(0.000000,138.000000) scale(0.100000,-0.100000)" fill="#000000" stroke="none">
<path d="M917 1352 c-52 -54 -26 -122 46 -122 39 0 67 27 67 65 -1 23 -53 85
-73 85 -7 0 -25 -13 -40 -28z"></path>
<path d="M4417 1322 c-33 -35 -34 -52 -2 -86 32 -35 76 -35 104 0 27 35 27 65
-2 92 -32 30 -68 28 -100 -6z"></path>
<path d="M5820 810 c0 -336 3 -431 13 -434 6 -2 28 -8 47 -14 51 -17 257 -19
272 -4 7 7 19 12 27 12 27 0 106 76 131 126 22 42 25 61 25 154 0 93 -3 112
-24 154 -29 55 -71 99 -116 121 -50 23 -159 20 -213 -6 -24 -12 -47 -18 -51
-13 -3 5 -4 79 -1 164 4 85 5 158 3 163 -2 4 -29 7 -59 7 l-54 0 0 -430z m70
225 c0 -25 -4 -45 -10 -45 -5 0 -10 20 -10 45 0 25 5 45 10 45 6 0 10 -20 10
-45z m0 -130 c0 -8 9 -20 20 -27 11 -7 20 -17 20 -21 0 -5 -9 -20 -20 -34 -11
-14 -20 -34 -20 -44 0 -11 -4 -19 -10 -19 -6 0 -10 33 -10 80 0 47 4 80 10 80
6 0 10 -7 10 -15z m288 -29 c15 -8 39 -27 54 -43 42 -45 75 -143 48 -143 -5 0
-10 9 -10 20 0 47 -85 160 -120 160 -6 0 -10 5 -10 10 0 13 6 13 38 -4z m-9
-75 c72 -72 82 -198 24 -288 -8 -12 -36 -34 -61 -49 -40 -22 -56 -25 -108 -22
-94 6 -94 5 -94 182 0 83 4 157 9 164 20 32 67 51 129 51 59 1 64 -1 101 -38z
m121 -216 c0 -35 -62 -135 -83 -135 -6 0 1 12 16 28 14 15 32 48 38 75 13 45
29 64 29 32z m-400 -110 c0 -9 12 -27 26 -42 30 -30 26 -39 -13 -26 -23 8 -29
16 -31 46 -2 21 1 37 7 37 6 0 11 -7 11 -15z"></path>
<path d="M2300 1157 c-109 -26 -195 -95 -245 -195 -56 -112 -59 -300 -6 -416
54 -120 142 -181 296 -205 33 -5 64 -6 68 -1 5 4 7 23 5 41 -3 34 -4 34 -58
37 -30 2 -59 7 -65 13 -5 5 -15 9 -21 9 -25 0 -105 63 -128 99 -49 79 -77 173
-56 186 9 5 639 7 720 2 25 -2 25 -2 22 73 -4 98 -23 160 -68 221 -40 54 -95
96 -163 123 -59 23 -227 30 -301 13z m198 -67 c105 -17 175 -67 217 -156 13
-28 26 -70 27 -93 l3 -42 -324 0 c-179 0 -328 4 -333 9 -5 5 0 33 13 68 63
172 200 246 397 214z"></path>
<path d="M3400 1154 c-132 -20 -205 -47 -255 -94 -33 -31 -44 -24 -47 27 l-3
47 -43 1 c-24 1 -45 -2 -48 -7 -7 -10 -6 -799 1 -806 3 -3 25 -7 49 -8 l44 -1
4 241 c4 225 6 245 28 301 34 88 115 166 196 188 33 9 75 17 92 17 32 0 32 0
32 50 0 34 -4 50 -12 49 -7 -1 -24 -3 -38 -5z"></path>
<path d="M309 1136 c-144 -40 -251 -153 -290 -306 -16 -62 -23 -188 -11 -203
6 -7 13 -29 17 -50 4 -20 11 -40 16 -43 5 -3 9 -14 9 -25 0 -10 30 -50 67 -87
96 -97 153 -117 323 -117 105 1 134 4 180 23 74 29 146 101 182 179 15 35 28
65 28 68 0 3 -10 10 -22 15 -13 6 -30 15 -39 22 -22 15 -49 3 -49 -22 0 -30
-35 -95 -67 -125 -57 -52 -109 -69 -218 -70 -120 0 -182 23 -244 90 -63 68
-75 104 -75 225 -1 113 13 165 60 227 77 101 238 147 373 107 61 -18 133 -78
151 -127 6 -17 16 -42 21 -55 l9 -23 38 22 c20 12 40 25 45 29 10 9 -35 109
-68 148 -35 42 -101 80 -167 98 -65 17 -207 17 -269 0z"></path>
<path d="M912 733 l3 -417 50 0 c33 0 50 4 49 12 -1 7 -2 194 -2 417 l-2 405
-50 0 -50 0 2 -417z"></path>
<path d="M1400 1139 c-46 -13 -78 -28 -118 -58 -37 -27 -47 -23 -47 22 0 32
-1 32 -50 32 l-50 0 0 -410 0 -410 48 0 48 0 3 265 c2 306 5 319 82 397 40 40
64 55 109 69 108 31 232 6 292 -58 50 -53 54 -78 53 -378 -1 -154 1 -284 4
-289 3 -5 25 -8 48 -7 l43 1 3 295 c3 333 -1 357 -61 426 -72 82 -153 114
-287 113 -47 0 -101 -5 -120 -10z"></path>
<path d="M3760 1136 c-103 -28 -162 -72 -224 -171 -46 -72 -60 -124 -60 -233
-1 -134 28 -215 108 -301 79 -85 171 -116 325 -109 86 4 116 10 161 31 31 14
64 35 74 46 33 37 46 27 46 -35 0 -117 -50 -195 -145 -228 -64 -21 -225 -22
-288 0 -60 20 -114 80 -123 134 -8 50 -23 62 -71 58 -47 -4 -53 -26 -27 -101
38 -108 104 -161 250 -197 80 -20 97 -22 163 -11 152 23 228 59 284 133 54 72
56 91 57 555 l1 428 -48 0 -48 0 -3 -42 c-2 -24 -8 -43 -14 -43 -5 0 -27 13
-47 28 -43 33 -73 48 -126 61 -52 14 -188 12 -245 -3z m237 -97 c68 -25 128
-82 163 -155 19 -37 25 -70 28 -139 5 -113 -18 -183 -81 -246 -55 -55 -116
-81 -203 -87 -177 -11 -298 85 -325 262 -17 109 9 205 78 285 79 93 217 125
340 80z"></path>
<path d="M4415 1138 c-3 -7 -4 -195 -3 -418 l3 -405 48 0 48 0 0 415 0 415
-46 3 c-30 2 -47 -1 -50 -10z"></path>
<path d="M4880 1137 c-111 -30 -197 -104 -252 -215 -32 -65 -33 -69 -33 -202
1 -170 19 -226 104 -311 72 -72 142 -100 265 -107 222 -12 349 56 437 232 11
23 15 44 10 49 -4 4 -30 7 -57 5 -43 -3 -49 -6 -52 -27 -2 -14 -29 -50 -60
-81 -47 -46 -68 -59 -118 -73 -152 -43 -315 0 -384 99 -23 35 -50 114 -50 150
0 12 7 25 16 28 9 3 177 6 375 6 337 0 359 1 359 18 0 61 -24 191 -42 226 -47
92 -122 159 -214 192 -61 21 -240 28 -304 11z m271 -105 c25 -11 62 -34 81
-50 40 -36 88 -128 88 -171 l0 -31 -309 0 c-191 0 -312 4 -316 10 -10 16 15
92 45 135 37 53 88 92 153 116 68 25 191 21 258 -9z"></path>
<path d="M6600 923 c-43 -22 -120 -101 -120 -123 0 -9 -6 -22 -12 -28 -20 -20
-16 -217 5 -262 23 -52 79 -112 127 -137 36 -20 57 -23 145 -23 59 0 107 4
110 10 3 6 16 10 28 10 42 0 74 40 80 98 7 58 -6 68 -38 32 -10 -11 -38 -26
-62 -32 -24 -6 -46 -14 -49 -19 -3 -5 -26 -9 -52 -9 -48 0 -107 23 -144 57
-27 25 -58 87 -58 118 l0 25 220 0 c189 0 220 2 220 15 0 8 -7 15 -15 15 -21
0 -35 32 -35 82 0 53 -40 117 -96 156 -34 24 -50 27 -129 30 -70 2 -98 -1
-125 -15z m183 -87 c41 -17 70 -59 71 -104 l1 -33 -145 -1 c-102 0 -145 3
-148 11 -10 29 56 119 98 134 28 10 91 7 123 -7z m-255 -142 c8 -17 9 -31 2
-44 -29 -54 3 -135 77 -199 32 -27 42 -41 31 -41 -28 0 -90 61 -114 115 -18
38 -24 68 -24 123 0 75 9 90 28 46z"></path>
<path d="M5542 467 c-31 -33 -29 -80 4 -106 53 -42 124 -10 124 55 0 65 -84
98 -128 51z m74 -38 c9 -16 -12 -33 -31 -25 -14 5 -15 9 -5 21 15 18 26 19 36
4z"></path>
</g>
</svg>