<svg version="1.1" id="Calque_1" xmlns="http://www.w3.org/2000/svg" x="0" y="0" viewBox="0 0 301.4 64.3" style="enable-background:new 0 0 301.4 64.3" xml:space="preserve"><style>.st0{fill:#fff}.st1{fill:#d30016}</style><path class="st0" d="M179.9 42.2c-.3.1-.5.3-.6.5-2.7 2.6-6 4-9.7 4.4-2.3.3-4.6.2-6.9-.2-3-.6-5.7-1.9-7.9-4-2.1-2-3.6-4.5-4.4-7.4-1.3-4.6-1.1-9.2.6-13.7 1.3-3.4 3.6-6.1 6.8-7.9 1.6-1 3.4-1.5 5.3-1.9 1.7-.3 3.4-.5 5.2-.4 3 .1 5.9.8 8.5 2.5 1 .7 2 1.4 2.8 2.3l.3.3c.2-.1.1-.3.1-.5v-3.4c0-.4 0-.4.4-.4h3.7c.3 0 .4.1.4.4v32c0 2.3-.3 4.5-1.1 6.6-1.1 3-3.2 5.1-6 6.4-2.1 1-4.3 1.5-6.6 1.7-2.2.2-4.5.2-6.7-.1-2.7-.3-5.3-1.1-7.6-2.7-2-1.3-3.2-3.2-4-5.4-.5-1.4-.7-2.9-.8-4.4 0-.4 0-.4.4-.4h3.6c.4 0 .5 0 .5.5.1.7.2 1.5.4 2.2.7 2.4 2.2 4.1 4.5 5.2 1.3.6 2.7.9 4.1 1 2.4.2 4.8.2 7.2-.3 1.7-.3 3.2-1.1 4.6-2.1 1.6-1.2 2.5-2.9 2.8-4.9.2-.8.2-1.7.2-2.5-.1-1.2-.1-2.3-.1-3.4zM154 29.5c0 .7 0 1.4.1 2.1.3 2.9 1.3 5.5 3.3 7.6 1.6 1.8 3.6 2.9 6 3.4 2 .4 4 .5 5.9.1 5.1-.8 8.4-3.7 10-8.6.7-2.2.7-4.5.5-6.7-.2-2.4-1.1-4.6-2.5-6.6-1.5-2.1-3.5-3.7-6-4.5-2.1-.6-4.2-.7-6.4-.4-4.4.6-7.5 3.1-9.5 6.9-1.1 2.2-1.4 4.4-1.4 6.7zM216.8 31.6h-15.4c-.4 0-.4.1-.4.4.2 2.4.7 4.7 2 6.7 1.7 2.6 4.1 4.1 7.1 4.7 2.5.5 5 .6 7.5.2 4.5-.7 7.7-3.2 9.5-7.5 0-.1.1-.2.1-.3.1-.2.2-.3.4-.3h3.9c.2 0 .4.1.3.3-1.2 3.7-3 7-6.3 9.2-2.1 1.4-4.5 2.2-6.9 2.6-3 .5-6 .5-9-.1-3.4-.7-6.4-2.2-8.8-4.8-1.8-2-2.9-4.3-3.5-7-.9-4-1-8 .1-11.9s3.4-7 6.7-9.4c1.9-1.3 3.9-2 6.1-2.5 3.9-.8 7.8-.7 11.5.6 5.9 2 9.5 6.2 10.6 12.4.4 2 .3 4 .3 6 0 .4 0 .4-.4.4h-2.4c-4.4.2-8.7.2-13 .3 0-.1 0-.1 0 0zm-2.4-4.3h12.8c.6 0 .6 0 .5-.6-.1-.5-.1-.9-.2-1.4-1-4.6-3.8-7.5-8.3-8.9-2.8-.9-5.7-.9-8.6-.2-2.5.6-4.7 1.9-6.4 3.8s-2.6 4-3 6.5c-.1.8-.1.8.6.8h12.6zM55.3 16c.2 0 .3-.1.4-.2 2.1-2 4.6-3.2 7.5-3.7 1.7-.3 3.5-.5 5.2-.4 3 .2 5.9.8 8.4 2.5 2.8 1.8 4.5 4.3 5 7.6.1.8.2 1.7.2 2.5v22.3c0 .8.1.7-.7.7h-3.2c-.6 0-.6 0-.6-.6V25.1c0-1.1 0-2.2-.4-3.3-.9-2.9-2.8-4.6-5.7-5.4-1.9-.5-3.9-.7-5.9-.5-4.4.4-7.7 2.5-9.4 6.6-.7 1.5-.9 3.2-.9 4.9v19c0 .9.1.8-.8.8h-3.3c-.4 0-.4 0-.4-.4V12.9c0-.4 0-.5.4-.5h3.7c.3 0 .4.1.4.4v2.9s0 .1.1.3zM33.6 24.8c-.2-.3-.2-.6-.3-.9-.5-1.6-1.1-3-2.1-4.3-1.3-1.6-3-2.7-5-3.2-3.2-.8-6.3-.7-9.4.2-3.6 1.1-6.1 3.4-7.7 6.8-.7 1.4-1 2.9-1.2 4.4-.2 1.4-.2 2.8-.1 4.2.2 2.7 1 5.2 2.8 7.4 2 2.3 4.5 3.7 7.5 4.2 1.5.2 3 .3 4.5.3 2-.1 3.9-.5 5.7-1.4 2.5-1.2 4.2-3.2 5-5.8.2-.6.4-1.3.5-2 0-.2 0-.4.2-.6.1 0 .2 0 .2.1 1.2.5 2.3 1 3.5 1.5.4.2.4.2.3.7-1.2 4.9-4 8.5-8.8 10.4-1.9.8-3.9 1.2-6 1.3-2.2.2-4.4 0-6.5-.4-3-.6-5.8-1.8-8.1-3.9-2.6-2.3-4.1-5.2-4.9-8.5-.5-2.1-.6-4.3-.5-6.5.3-4.1 1.5-7.8 4.2-11 1.9-2.2 4.2-3.9 6.9-4.8 4.5-1.5 9-1.8 13.6-.4 4.7 1.4 7.8 4.5 9.4 9.3.1.4.4.8.3 1.1-.1.3-.6.4-1 .5l-2.4 1.2c-.2 0-.4 0-.6.1z"/><path class="st1" d="M253.5 22.6c.3-.1.5-.3.8-.4 1.9-1.2 3.9-1.8 6.1-1.8 3.2 0 5.7 1.3 7.7 3.7 1.4 1.7 2.2 3.7 2.6 5.9.4 2.4.4 4.8-.2 7.1-1.1 4.3-3.9 7-8 8.3-2 .6-4.1.7-6.3.6-1.6-.1-3.1-.3-4.6-.7-.9-.2-1.7-.5-2.5-.8-.3-.1-.5-.3-.5-.7v-35c0-.9-.1-.8.8-.8h3.5c.5 0 .5 0 .5.5v13.4c.1.2 0 .4.1.7zm0 11.4v6.2c0 .6 0 .6.6.7 1.1.3 2.3.5 3.5.6 1 0 2 .1 2.9-.1 2.8-.7 4.4-2.6 5.2-5.2.5-1.4.4-2.9.3-4.4-.2-1.5-.7-2.9-1.6-4.1-1.7-2.3-4.3-3-6.8-2.5-1.3.3-2.3.9-3.3 1.7-.8.7-.8.4-.8 1.5V34zM107 29.8H92c-.9 0-.9 0-.8.9.2 2.2.7 4.4 1.9 6.3 1.6 2.7 4.1 4.4 7.1 5.2 1.5.4 3 .7 4.5.7.5 0 .6 0 .6.5v2.4c0 .2-.1.3-.3.3-3.5 0-6.9-.6-9.9-2.5-3.6-2.2-5.7-5.6-6.7-9.7-.4-1.9-.6-3.9-.6-5.9.1-2.7.5-5.4 1.7-7.8 2.2-4.7 5.8-7.7 10.8-8.9 4.2-1 8.3-.9 12.3.5 4.2 1.5 7.3 4.3 9.1 8.5.7 1.6 1 3.3 1.2 5 .1 1.2.1 2.3.1 3.5 0 .8.1.8-.8.8h-5.7c-3.3.1-6.4.1-9.5.2zm-1.9-3.3h13.6c.2 0 .3-.1.3-.3 0-.3-.1-.6-.1-.9-.2-2-.8-3.8-1.9-5.5-1.3-2.1-3.1-3.6-5.4-4.5-3.1-1.3-6.3-1.5-9.5-.9-5 .9-8.3 3.8-10 8.6-.4 1-.6 2.1-.8 3.2-.1.4 0 .4.4.4h.2c4.3-.1 8.8-.1 13.2-.1zM297 38.6v.9c0 .9-.1 1.9 0 2.8 0 .7-.2 1-.8 1.4-3.6 2.1-7.4 2.7-11.5 2.1-3.1-.4-5.5-2.1-7.3-4.7-1.8-2.5-2.4-5.4-2.4-8.4 0-2.5.6-4.9 1.9-7.1 1.9-3.1 4.8-4.9 8.4-5.2 2.8-.2 5.4.3 7.6 2.1 1.8 1.5 3 3.4 3.6 5.6.5 1.7.7 3.4.6 5.1 0 .3-.1.4-.4.4h-16.3c-.7 0-.7 0-.6.6.3 3 1.8 5.3 4.6 6.5 1.3.6 2.7.6 4.1.6 2.8-.1 5.3-1 7.6-2.5.5 0 .6-.2.9-.2zm-10.6-7.9h5.9c.2 0 .3-.1.3-.3-.1-.7-.2-1.5-.5-2.2-.6-1.6-1.7-2.8-3.4-3.3-1.3-.4-2.5-.4-3.8-.2-1 .2-1.8.7-2.6 1.4-1.2 1.1-1.7 2.6-2.1 4.1-.1.3 0 .4.4.4 1.9.1 3.9.1 5.8.1z"/><path class="st0" d="M134.1 17c.5-.5 1-1 1.5-1.4 2.4-2 5.1-3.1 8.1-3.6 1.5-.3 3-.4 4.5-.4.5 0 .5 0 .5.5v3.2c0 .5 0 .5-.5.5-1.4.1-2.7.1-4 .4-3.6.8-6.2 2.7-8 6-1 1.8-1.5 3.8-1.9 5.8-.3 1.5-.4 2.9-.4 4.4v14.4c0 .5 0 .5-.5.5h-3.6c-.4 0-.4 0-.4-.5V12.9c0-.5 0-.5.5-.5h3.1c1 0 .9-.2.9 1v3.3s0 .1.2.3zM45.8 29.5v17.2c0 .6 0 .6-.6.6h-3.4c-.5 0-.5 0-.6-.6v-34c0-.9-.1-.8.8-.8h3.2c.5 0 .5 0 .5.5v2.2c.1 5 .1 10 .1 14.9zM193.8 29.5V46.9c0 .3-.1.4-.4.4h-3.7c-.5 0-.5 0-.5-.5V12.7c0-.7-.1-.7.7-.7h3.1c.8 0 .7-.1.7.8v9.9c.1 2.1.1 4.5.1 6.8z"/><path class="st1" d="M239.2 46c-1.9 0-3.2-1.4-3.2-3.3 0-1.7 1.5-3.1 3.3-3.1s3.3 1.5 3.2 3.3c0 1.8-1.4 3.2-3.3 3.1z"/><path class="st0" d="M191.6 9.3c-1.6 0-3-1.4-3-3 0-1.7 1.4-3.1 3-3.1 1.7 0 3 1.4 3 3.1 0 1.6-1.4 3-3 3zM46.4 5.8c.1 1.4-1.2 3-3 3-1.7 0-3-1.4-3-3.1 0-1.6 1.5-3 3.1-3 1.9 0 3.1 1.7 2.9 3.1z"/></svg>