<?xml version="1.0" encoding="utf-8"?>
<!-- Generator: Adobe Illustrator 27.7.0, SVG Export Plug-In . SVG Version: 6.00 Build 0)  -->
<svg version="1.1" id="Calque_1" xmlns="http://www.w3.org/2000/svg" xmlns:xlink="http://www.w3.org/1999/xlink" x="0px" y="0px"
	 viewBox="0 0 301.4 64.3" style="enable-background:new 0 0 301.4 64.3;" xml:space="preserve">
<style type="text/css">
	.st0{fill:#FFFFFF;}
	.st1{fill:#D30016;}
</style>
<g>
	<path class="st0" d="M179.9,42.2c-0.3,0.1-0.5,0.3-0.6,0.5c-2.7,2.6-6,4-9.7,4.4c-2.3,0.3-4.6,0.2-6.9-0.2c-3-0.6-5.7-1.9-7.9-4
		c-2.1-2-3.6-4.5-4.4-7.4c-1.3-4.6-1.1-9.2,0.6-13.7c1.3-3.4,3.6-6.1,6.8-7.9c1.6-1,3.4-1.5,5.3-1.9c1.7-0.3,3.4-0.5,5.2-0.4
		c3,0.1,5.9,0.8,8.5,2.5c1,0.7,2,1.4,2.8,2.3c0.1,0.1,0.2,0.2,0.3,0.3c0.2-0.1,0.1-0.3,0.1-0.5c0-1.1,0-2.3,0-3.4
		c0-0.4,0-0.4,0.4-0.4c1.2,0,2.5,0,3.7,0c0.3,0,0.4,0.1,0.4,0.4c0,0.2,0,0.4,0,0.6c0,10.5,0,21,0,31.4c0,2.3-0.3,4.5-1.1,6.6
		c-1.1,3-3.2,5.1-6,6.4c-2.1,1-4.3,1.5-6.6,1.7c-2.2,0.2-4.5,0.2-6.7-0.1c-2.7-0.3-5.3-1.1-7.6-2.7c-2-1.3-3.2-3.2-4-5.4
		c-0.5-1.4-0.7-2.9-0.8-4.4c0-0.4,0-0.4,0.4-0.4c1.2,0,2.4,0,3.6,0c0.4,0,0.5,0,0.5,0.5c0.1,0.7,0.2,1.5,0.4,2.2
		c0.7,2.4,2.2,4.1,4.5,5.2c1.3,0.6,2.7,0.9,4.1,1c2.4,0.2,4.8,0.2,7.2-0.3c1.7-0.3,3.2-1.1,4.6-2.1c1.6-1.2,2.5-2.9,2.8-4.9
		c0.2-0.8,0.2-1.7,0.2-2.5C179.9,44.4,179.9,43.3,179.9,42.2z M154,29.5c0,0.7,0,1.4,0.1,2.1c0.3,2.9,1.3,5.5,3.3,7.6
		c1.6,1.8,3.6,2.9,6,3.4c2,0.4,4,0.5,5.9,0.1c5.1-0.8,8.4-3.7,10-8.6c0.7-2.2,0.7-4.5,0.5-6.7c-0.2-2.4-1.1-4.6-2.5-6.6
		c-1.5-2.1-3.5-3.7-6-4.5c-2.1-0.6-4.2-0.7-6.4-0.4c-4.4,0.6-7.5,3.1-9.5,6.9C154.3,25,154,27.2,154,29.5z"/>
	<path class="st0" d="M216.8,31.6c-5,0-10,0-15,0c-0.1,0-0.2,0-0.4,0c-0.4,0-0.4,0.1-0.4,0.4c0.2,2.4,0.7,4.7,2,6.7
		c1.7,2.6,4.1,4.1,7.1,4.7c2.5,0.5,5,0.6,7.5,0.2c4.5-0.7,7.7-3.2,9.5-7.5c0-0.1,0.1-0.2,0.1-0.3c0.1-0.2,0.2-0.3,0.4-0.3
		c1.3,0,2.6,0,3.9,0c0.2,0,0.4,0.1,0.3,0.3c-1.2,3.7-3,7-6.3,9.2c-2.1,1.4-4.5,2.2-6.9,2.6c-3,0.5-6,0.5-9-0.1
		c-3.4-0.7-6.4-2.2-8.8-4.8c-1.8-2-2.9-4.3-3.5-7c-0.9-4-1-8,0.1-11.9s3.4-7,6.7-9.4c1.9-1.3,3.9-2,6.1-2.5
		c3.9-0.8,7.8-0.7,11.5,0.6c5.9,2,9.5,6.2,10.6,12.4c0.4,2,0.3,4,0.3,6c0,0.4,0,0.4-0.4,0.4c-0.8,0-1.6,0-2.4,0
		C225.4,31.5,221.1,31.5,216.8,31.6C216.8,31.5,216.8,31.5,216.8,31.6z M214.4,27.3L214.4,27.3c0.7,0,1.5,0,2.2,0c3.5,0,7,0,10.6,0
		c0.6,0,0.6,0,0.5-0.6c-0.1-0.5-0.1-0.9-0.2-1.4c-1-4.6-3.8-7.5-8.3-8.9c-2.8-0.9-5.7-0.9-8.6-0.2c-2.5,0.6-4.7,1.9-6.4,3.8
		s-2.6,4-3,6.5c-0.1,0.8-0.1,0.8,0.6,0.8C206,27.3,210.2,27.3,214.4,27.3z"/>
	<path class="st0" d="M55.3,16c0.2,0,0.3-0.1,0.4-0.2c2.1-2,4.6-3.2,7.5-3.7c1.7-0.3,3.5-0.5,5.2-0.4c3,0.2,5.9,0.8,8.4,2.5
		c2.8,1.8,4.5,4.3,5,7.6c0.1,0.8,0.2,1.7,0.2,2.5c0,7.4,0,14.9,0,22.3c0,0.8,0.1,0.7-0.7,0.7c-1.1,0-2.1,0-3.2,0
		c-0.6,0-0.6,0-0.6-0.6c0-7.2,0-14.4,0-21.6c0-1.1,0-2.2-0.4-3.3c-0.9-2.9-2.8-4.6-5.7-5.4c-1.9-0.5-3.9-0.7-5.9-0.5
		c-4.4,0.4-7.7,2.5-9.4,6.6c-0.7,1.5-0.9,3.2-0.9,4.9c0,6.3,0,12.7,0,19c0,0.9,0.1,0.8-0.8,0.8c-1.1,0-2.2,0-3.3,0
		c-0.4,0-0.4,0-0.4-0.4c0-0.3,0-0.7,0-1c0-10.9,0-21.8,0-32.7c0-0.1,0-0.2,0-0.2c0-0.4,0-0.5,0.4-0.5c1.2,0,2.5,0,3.7,0
		c0.3,0,0.4,0.1,0.4,0.4c0,1,0,1.9,0,2.9C55.2,15.7,55.2,15.8,55.3,16z"/>
	<path class="st0" d="M33.6,24.8c-0.2-0.3-0.2-0.6-0.3-0.9c-0.5-1.6-1.1-3-2.1-4.3c-1.3-1.6-3-2.7-5-3.2c-3.2-0.8-6.3-0.7-9.4,0.2
		c-3.6,1.1-6.1,3.4-7.7,6.8c-0.7,1.4-1,2.9-1.2,4.4c-0.2,1.4-0.2,2.8-0.1,4.2c0.2,2.7,1,5.2,2.8,7.4c2,2.3,4.5,3.7,7.5,4.2
		c1.5,0.2,3,0.3,4.5,0.3c2-0.1,3.9-0.5,5.7-1.4c2.5-1.2,4.2-3.2,5-5.8c0.2-0.6,0.4-1.3,0.5-2c0-0.2,0-0.4,0.2-0.6
		c0.1,0,0.2,0,0.2,0.1c1.2,0.5,2.3,1,3.5,1.5c0.4,0.2,0.4,0.2,0.3,0.7c-1.2,4.9-4,8.5-8.8,10.4c-1.9,0.8-3.9,1.2-6,1.3
		c-2.2,0.2-4.4,0-6.5-0.4c-3-0.6-5.8-1.8-8.1-3.9c-2.6-2.3-4.1-5.2-4.9-8.5c-0.5-2.1-0.6-4.3-0.5-6.5c0.3-4.1,1.5-7.8,4.2-11
		c1.9-2.2,4.2-3.9,6.9-4.8c4.5-1.5,9-1.8,13.6-0.4c4.7,1.4,7.8,4.5,9.4,9.3c0.1,0.4,0.4,0.8,0.3,1.1c-0.1,0.3-0.6,0.4-1,0.5
		c-0.8,0.4-1.6,0.8-2.4,1.2C34,24.7,33.8,24.7,33.6,24.8z"/>
	<path class="st1" d="M253.5,22.6c0.3-0.1,0.5-0.3,0.8-0.4c1.9-1.2,3.9-1.8,6.1-1.8c3.2,0,5.7,1.3,7.7,3.7c1.4,1.7,2.2,3.7,2.6,5.9
		c0.4,2.4,0.4,4.8-0.2,7.1c-1.1,4.3-3.9,7-8,8.3c-2,0.6-4.1,0.7-6.3,0.6c-1.6-0.1-3.1-0.3-4.6-0.7c-0.9-0.2-1.7-0.5-2.5-0.8
		c-0.3-0.1-0.5-0.3-0.5-0.7c0-0.5,0-1,0-1.5c0-11.2,0-22.3,0-33.5c0-0.9-0.1-0.8,0.8-0.8c1.2,0,2.3,0,3.5,0c0.5,0,0.5,0,0.5,0.5
		c0,4.5,0,8.9,0,13.4C253.5,22.1,253.4,22.3,253.5,22.6z M253.5,34c0,2.1,0,4.1,0,6.2c0,0.6,0,0.6,0.6,0.7c1.1,0.3,2.3,0.5,3.5,0.6
		c1,0,2,0.1,2.9-0.1c2.8-0.7,4.4-2.6,5.2-5.2c0.5-1.4,0.4-2.9,0.3-4.4c-0.2-1.5-0.7-2.9-1.6-4.1c-1.7-2.3-4.3-3-6.8-2.5
		c-1.3,0.3-2.3,0.9-3.3,1.7c-0.8,0.7-0.8,0.4-0.8,1.5C253.5,30.2,253.5,32.1,253.5,34z"/>
	<path class="st1" d="M107,29.8c-5,0-10,0-15,0c-0.9,0-0.9,0-0.8,0.9c0.2,2.2,0.7,4.4,1.9,6.3c1.6,2.7,4.1,4.4,7.1,5.2
		c1.5,0.4,3,0.7,4.5,0.7c0.5,0,0.6,0,0.6,0.5c0,0.8,0,1.6,0,2.4c0,0.2-0.1,0.3-0.3,0.3c-3.5,0-6.9-0.6-9.9-2.5
		c-3.6-2.2-5.7-5.6-6.7-9.7C88,32,87.8,30,87.8,28c0.1-2.7,0.5-5.4,1.7-7.8c2.2-4.7,5.8-7.7,10.8-8.9c4.2-1,8.3-0.9,12.3,0.5
		c4.2,1.5,7.3,4.3,9.1,8.5c0.7,1.6,1,3.3,1.2,5c0.1,1.2,0.1,2.3,0.1,3.5c0,0.8,0.1,0.8-0.8,0.8c-1.9,0-3.8,0-5.7,0
		C113.2,29.7,110.1,29.7,107,29.8L107,29.8z M105.1,26.5L105.1,26.5c4.4,0,8.7,0,13.1,0c0.2,0,0.3,0,0.5,0s0.3-0.1,0.3-0.3
		c0-0.3-0.1-0.6-0.1-0.9c-0.2-2-0.8-3.8-1.9-5.5c-1.3-2.1-3.1-3.6-5.4-4.5c-3.1-1.3-6.3-1.5-9.5-0.9c-5,0.9-8.3,3.8-10,8.6
		c-0.4,1-0.6,2.1-0.8,3.2c-0.1,0.4,0,0.4,0.4,0.4c0.1,0,0.1,0,0.2,0C96.2,26.5,100.7,26.5,105.1,26.5z"/>
	<path class="st1" d="M297,38.6c0,0.3,0,0.6,0,0.9c0,0.9-0.1,1.9,0,2.8c0,0.7-0.2,1-0.8,1.4c-3.6,2.1-7.4,2.7-11.5,2.1
		c-3.1-0.4-5.5-2.1-7.3-4.7c-1.8-2.5-2.4-5.4-2.4-8.4c0-2.5,0.6-4.9,1.9-7.1c1.9-3.1,4.8-4.9,8.4-5.2c2.8-0.2,5.4,0.3,7.6,2.1
		c1.8,1.5,3,3.4,3.6,5.6c0.5,1.7,0.7,3.4,0.6,5.1c0,0.3-0.1,0.4-0.4,0.4c-0.6,0-1.1,0-1.7,0c-4.9,0-9.8,0-14.6,0
		c-0.7,0-0.7,0-0.6,0.6c0.3,3,1.8,5.3,4.6,6.5c1.3,0.6,2.7,0.6,4.1,0.6c2.8-0.1,5.3-1,7.6-2.5C296.6,38.8,296.7,38.6,297,38.6z
		 M286.4,30.7L286.4,30.7c1.8,0,3.7,0,5.5,0c0.1,0,0.3,0,0.4,0c0.2,0,0.3-0.1,0.3-0.3c-0.1-0.7-0.2-1.5-0.5-2.2
		c-0.6-1.6-1.7-2.8-3.4-3.3c-1.3-0.4-2.5-0.4-3.8-0.2c-1,0.2-1.8,0.7-2.6,1.4c-1.2,1.1-1.7,2.6-2.1,4.1c-0.1,0.3,0,0.4,0.4,0.4
		C282.5,30.7,284.5,30.7,286.4,30.7z"/>
	<path class="st0" d="M134.1,17c0.5-0.5,1-1,1.5-1.4c2.4-2,5.1-3.1,8.1-3.6c1.5-0.3,3-0.4,4.5-0.4c0.5,0,0.5,0,0.5,0.5
		c0,1.1,0,2.2,0,3.2c0,0.5,0,0.5-0.5,0.5c-1.4,0.1-2.7,0.1-4,0.4c-3.6,0.8-6.2,2.7-8,6c-1,1.8-1.5,3.8-1.9,5.8
		c-0.3,1.5-0.4,2.9-0.4,4.4c0,4.7,0,9.3,0,14c0,0.1,0,0.2,0,0.4c0,0.5,0,0.5-0.5,0.5c-1.2,0-2.4,0-3.6,0c-0.4,0-0.4,0-0.4-0.5
		c0-0.6,0-1.2,0-1.7c0-10.7,0-21.4,0-32.1v-0.1c0-0.5,0-0.5,0.5-0.5c1,0,2.1,0,3.1,0s0.9-0.2,0.9,1c0,1.1,0,2.2,0,3.3
		C133.9,16.7,133.9,16.8,134.1,17z"/>
	<path class="st0" d="M45.8,29.5c0,5.7,0,11.4,0,17.2c0,0.6,0,0.6-0.6,0.6c-1.1,0-2.3,0-3.4,0c-0.5,0-0.5,0-0.6-0.6
		c0-0.1,0-0.3,0-0.4c0-11.2,0-22.4,0-33.6c0-0.9-0.1-0.8,0.8-0.8c1.1,0,2.1,0,3.2,0c0.5,0,0.5,0,0.5,0.5c0,0.7,0,1.5,0,2.2
		C45.8,19.6,45.8,24.6,45.8,29.5L45.8,29.5z"/>
	<path class="st0" d="M193.8,29.5c0,5.7,0,11.4,0,17.1c0,0.1,0,0.2,0,0.3c0,0.3-0.1,0.4-0.4,0.4c-0.4,0-0.9,0-1.3,0
		c-0.8,0-1.6,0-2.4,0c-0.5,0-0.5,0-0.5-0.5c0-0.1,0-0.2,0-0.2c0-11.3,0-22.6,0-33.9c0-0.7-0.1-0.7,0.7-0.7c1,0,2.1,0,3.1,0
		c0.8,0,0.7-0.1,0.7,0.8c0,3.3,0,6.6,0,9.9C193.8,24.8,193.8,27.2,193.8,29.5L193.8,29.5z"/>
	<path class="st1" d="M239.2,46c-1.9,0-3.2-1.4-3.2-3.3c0-1.7,1.5-3.1,3.3-3.1s3.3,1.5,3.2,3.3C242.5,44.7,241.1,46.1,239.2,46z"/>
	<path class="st0" d="M191.6,9.3c-1.6,0-3-1.4-3-3c0-1.7,1.4-3.1,3-3.1c1.7,0,3,1.4,3,3.1C194.6,7.9,193.2,9.3,191.6,9.3z"/>
	<path class="st0" d="M46.4,5.8c0.1,1.4-1.2,3-3,3c-1.7,0-3-1.4-3-3.1c0-1.6,1.5-3,3.1-3C45.4,2.7,46.6,4.4,46.4,5.8z"/>
</g>
</svg>
