<svg xmlns="http://www.w3.org/2000/svg" viewBox="0 0 24 24"><defs><style>.a{fill:none;stroke:#000000;stroke-linecap:round;stroke-linejoin:round;stroke-width:1.5px;}</style></defs><title>birthday-cake</title><path class="a" d="M15.068,15.224a2.052,2.052,0,0,0,1.151-.542h0a2.05,2.05,0,0,1,2.812,0h0a2.054,2.054,0,0,0,2.813,0l1.406-1.324"/><path class="a" d="M.75,13.358l1.406,1.324a2.054,2.054,0,0,0,2.813,0h0a2.05,2.05,0,0,1,2.812,0h0"/><rect class="a" x="0.75" y="10.591" width="22.5" height="12.273" rx="2"/><polyline class="a" points="10.466 14.682 12 13.659 12 19.284"/><line class="a" x1="10.466" y1="19.284" x2="13.534" y2="19.284"/><path class="a" d="M4.307,5.477H5.375a1,1,0,0,1,1,1v4.114a0,0,0,0,1,0,0H3.307a0,0,0,0,1,0,0V6.477A1,1,0,0,1,4.307,5.477Z"/><path class="a" d="M11.466,5.477h1.068a1,1,0,0,1,1,1v4.114a0,0,0,0,1,0,0H10.466a0,0,0,0,1,0,0V6.477A1,1,0,0,1,11.466,5.477Z"/><path class="a" d="M18.625,5.477h1.068a1,1,0,0,1,1,1v4.114a0,0,0,0,1,0,0H17.625a0,0,0,0,1,0,0V6.477A1,1,0,0,1,18.625,5.477Z"/><line class="a" x1="4.841" y1="2.67" x2="4.841" y2="1.136"/><line class="a" x1="12" y1="2.67" x2="12" y2="1.136"/><line class="a" x1="19.159" y1="2.67" x2="19.159" y2="1.136"/></svg>