<svg viewBox="0 0 24 24" height="24" width="24" xmlns="http://www.w3.org/2000/svg"><path d="M18.106,9.5l-.085-1.017A5.705,5.705,0,0,0,12.335,3.25h0A5.707,5.707,0,0,0,6.649,8.482L6.565,9.5a3,3,0,0,1-2.99,2.751H2.75a.75.75,0,0,0-.735.9l1.079,5.4A1.5,1.5,0,0,0,4.565,19.75H20.106a1.5,1.5,0,0,0,1.471-1.206l1.079-5.4a.75.75,0,0,0-.735-.9H21.1A3,3,0,0,1,18.106,9.5Z" fill="none" stroke="#000000" stroke-linecap="round" stroke-linejoin="round" stroke-width="1.5"   /><path d="M2.735 16.75L21.935 16.75" fill="none" stroke="#000000" stroke-linecap="round" stroke-linejoin="round" stroke-width="1.5"   /><path d="M10.46 7.375L14.21 11.125" fill="none" stroke="#000000" stroke-linecap="round" stroke-linejoin="round" stroke-width="1.5"   /><path d="M14.21 7.375L10.46 11.125" fill="none" stroke="#000000" stroke-linecap="round" stroke-linejoin="round" stroke-width="1.5"   /></svg>