<svg xmlns="http://www.w3.org/2000/svg" viewBox="0 0 24 24">
  <g>
    <path d="M6.76,17.43a2.91,2.91,0,0,1-3,2.82,2.91,2.91,0,0,1-3-2.8l0-4.88a2.91,2.91,0,0,1,3-2.82,2.91,2.91,0,0,1,3,2.8Z" style="fill: none;stroke: #000000;stroke-linecap: round;stroke-linejoin: round;stroke-width: 1.5px"/>
    <line x1="0.76" y1="16" x2="6.76" y2="16" style="fill: none;stroke: #000000;stroke-linecap: round;stroke-linejoin: round;stroke-width: 1.5px"/>
    <line x1="3.75" y1="20.25" x2="3.76" y2="23.24" style="fill: none;stroke: #000000;stroke-linecap: round;stroke-linejoin: round;stroke-width: 1.5px"/>
    <line x1="2.25" y1="23.25" x2="5.25" y2="23.25" style="fill: none;stroke: #000000;stroke-linecap: round;stroke-linejoin: round;stroke-width: 1.5px"/>
    <circle cx="19.5" cy="12.75" r="3" style="fill: none;stroke: #000000;stroke-linecap: round;stroke-linejoin: round;stroke-width: 1.5px"/>
    <line x1="19.5" y1="6.75" x2="19.49" y2="9.75" style="fill: none;stroke: #000000;stroke-linecap: round;stroke-linejoin: round;stroke-width: 1.5px"/>
    <path d="M18.25.75h2.5a1,1,0,0,1,1,1v3.5a1.5,1.5,0,0,1-1.5,1.5h-1.5a1.5,1.5,0,0,1-1.5-1.5V1.75a1,1,0,0,1,1-1Z" style="fill: none;stroke: #000000;stroke-linecap: round;stroke-linejoin: round;stroke-width: 1.5px"/>
    <path d="M17.25,3.41C12.94,4.82,11.87,9.7,9.75,15h3v3.3a2.7,2.7,0,0,0,2.7,2.7H16.5v2.25" style="fill: none;stroke: #000000;stroke-linecap: round;stroke-linejoin: round;stroke-width: 1.5px"/>
    <path d="M23.25,3.63a8.41,8.41,0,0,0-1.5-.46" style="fill: none;stroke: #000000;stroke-linecap: round;stroke-linejoin: round;stroke-width: 1.5px"/>
  </g>
</svg>
